<?xml version="1.0" ?><!-- Uploaded to: SVG Repo, www.svgrepo.com, Generator: SVG Repo Mixer Tools -->
<svg width="800px" height="800px" viewBox="0 0 64 64" data-name="Layer 1" id="Layer_1" xmlns="http://www.w3.org/2000/svg"><defs><style>.cls-1{fill:#ba9bc9;}.cls-2{fill:#f4ecce;}.cls-3{fill:#838bc5;}.cls-4{fill:#8f6c56;}.cls-5{fill:#65c8d0;}</style></defs><path class="cls-1" d="M47,36a15,15,0,0,1-30,0"/><path class="cls-2" d="M42,36a10,10,0,0,1-20,0"/><rect class="cls-2" height="4" width="6" x="23" y="1"/><rect class="cls-1" height="14" width="17" x="5" y="21"/><polygon class="cls-3" points="30 19 30 20 29 5 23 5 21 35 30 35 31 35 58 35 58 19 30 19"/><polyline class="cls-4" points="41 15 42 5 46 5 47 15"/><polyline class="cls-4" points="50 15 51 5 55 5 56 15"/><polyline class="cls-4" points="32 15 33 5 37 5 38 15"/><rect class="cls-1" height="6" rx="3" width="30" x="29" y="15"/><rect class="cls-4" height="2" width="60" x="2" y="34"/><polyline class="cls-4" points="7 21 8 11 12 11 13 21"/><rect class="cls-2" height="6" width="4" x="34" y="25"/><rect class="cls-2" height="6" width="4" x="50" y="25"/><rect class="cls-2" height="6" width="4" x="42" y="25"/><rect class="cls-2" height="2" width="2" x="8" y="24"/><rect class="cls-2" height="2" width="2" x="12" y="24"/><rect class="cls-2" height="2" width="2" x="16" y="24"/><rect class="cls-2" height="2" width="2" x="8" y="28"/><rect class="cls-2" height="2" width="2" x="12" y="28"/><rect class="cls-2" height="2" width="2" x="16" y="28"/><circle class="cls-5" cx="32" cy="60" r="2"/><circle class="cls-5" cx="60" cy="60" r="2"/><circle class="cls-5" cx="56" cy="52" r="2"/><circle class="cls-5" cx="60" cy="44" r="2"/><circle class="cls-5" cx="4" cy="60" r="2"/><circle class="cls-5" cx="8" cy="52" r="2"/><circle class="cls-5" cx="4" cy="44" r="2"/><path class="cls-3" d="M60,57a3,3,0,0,0-2.82,2H47V55a1,1,0,0,0-.88-1L39,53.12V50.37a15.94,15.94,0,0,0,3.78-2.59L43,49.16A1,1,0,0,0,44,50h2.59l2.7,2.71A1,1,0,0,0,50,53h3.18a3,3,0,1,0,0-2H50.41l-2.7-2.71A1,1,0,0,0,47,48H44.85l-.34-2.06A16.18,16.18,0,0,0,46.82,42h3.46l.77,2.32A1,1,0,0,0,52,45h5.18a3,3,0,1,0,0-2H52.72L52,40.68A1,1,0,0,0,51,40H47.47A15.56,15.56,0,0,0,48,36H46a14,14,0,0,1-28,0H16a15.56,15.56,0,0,0,.53,4H13a1,1,0,0,0-.95.68L11.28,43H6.82a3,3,0,1,0,0,2H12a1,1,0,0,0,.95-.68L13.72,42h3.46a15.93,15.93,0,0,0,2.31,4l-.34,2H17a1,1,0,0,0-.71.29L13.59,51H10.82a3,3,0,1,0,0,2H14a1,1,0,0,0,.71-.29L17.41,50H20a1,1,0,0,0,1-.84l.22-1.38A15.91,15.91,0,0,0,25,50.37v2.75L17.88,54A1,1,0,0,0,17,55v4H6.82a3,3,0,1,0,0,2H18a1,1,0,0,0,1-1V55.88L26.12,55A1,1,0,0,0,27,54V51.19A16,16,0,0,0,31,52v5.23a3,3,0,1,0,2,0V52a16,16,0,0,0,4-.76V54a1,1,0,0,0,.88,1l7.12.89V60a1,1,0,0,0,1,1H57.18A3,3,0,1,0,60,57Zm-4-6a1,1,0,1,1-1,1A1,1,0,0,1,56,51Zm4-8a1,1,0,1,1-1,1A1,1,0,0,1,60,43ZM4,45a1,1,0,1,1,1-1A1,1,0,0,1,4,45Zm4,8a1,1,0,1,1,1-1A1,1,0,0,1,8,53ZM4,61a1,1,0,1,1,1-1A1,1,0,0,1,4,61Zm28,0a1,1,0,1,1,1-1A1,1,0,0,1,32,61Zm28,0a1,1,0,1,1,1-1A1,1,0,0,1,60,61Z"/></svg>